<mxfile host="65bd71144e">
    <diagram id="QSEnCY4hZINQxiKqF9v5" name="Page-1">
        <mxGraphModel dx="2288" dy="1558" grid="0" gridSize="12" guides="1" tooltips="1" connect="1" arrows="1" fold="1" page="0" pageScale="1" pageWidth="4681" pageHeight="3300" background="#000000" math="0" shadow="0">
            <root>
                <mxCell id="0"/>
                <mxCell id="1" parent="0"/>
                <mxCell id="12" value="" style="whiteSpace=wrap;html=1;glass=0;rounded=0;shadow=0;flipV=0;imageAlign=center;imageVerticalAlign=middle;fillColor=none;strokeColor=#FFFFFF;" parent="1" vertex="1">
                    <mxGeometry x="420" y="336" width="3800" height="2928" as="geometry"/>
                </mxCell>
                <mxCell id="50" value="&lt;font color=&quot;#ffffff&quot; style=&quot;font-size: 50px;&quot;&gt;&lt;b style=&quot;font-size: 50px;&quot;&gt;Visiteur&lt;/b&gt;&lt;/font&gt;" style="shape=umlActor;verticalLabelPosition=bottom;verticalAlign=top;html=1;outlineConnect=0;aspect=fixed;fillColor=none;fontColor=#000000;strokeColor=#FFFFFF;strokeWidth=10;fontSize=50;" parent="1" vertex="1">
                    <mxGeometry x="84" y="1450" width="246.16" height="400" as="geometry"/>
                </mxCell>
                <mxCell id="90" value="" style="edgeStyle=none;rounded=0;html=1;strokeWidth=10;fontSize=50;endArrow=block;endFill=0;strokeColor=#FFFFFF;" parent="1" source="52" edge="1">
                    <mxGeometry relative="1" as="geometry">
                        <mxPoint x="4439" y="1368" as="targetPoint"/>
                    </mxGeometry>
                </mxCell>
                <mxCell id="52" value="&lt;font style=&quot;font-size: 50px;&quot;&gt;&lt;b style=&quot;font-size: 50px;&quot;&gt;Administrateur&lt;/b&gt;&lt;/font&gt;" style="shape=umlActor;verticalLabelPosition=bottom;verticalAlign=top;html=1;outlineConnect=0;aspect=fixed;fillColor=none;fontColor=#ffffff;strokeColor=#FFFFFF;fontSize=50;strokeWidth=10;" parent="1" vertex="1">
                    <mxGeometry x="4321" y="2292" width="235.29" height="400" as="geometry"/>
                </mxCell>
                <mxCell id="53" value="&lt;font style=&quot;font-size: 50px;&quot;&gt;Se Connecter à une interface d'aministration&lt;/font&gt;" style="ellipse;whiteSpace=wrap;html=1;rounded=1;shadow=0;glass=0;gradientColor=#0050EF;fillColor=none;strokeColor=#FFFFFF;fontColor=#FFFFFF;" parent="1" vertex="1">
                    <mxGeometry x="2424" y="1632" width="612" height="259" as="geometry"/>
                </mxCell>
                <mxCell id="54" value="&lt;font style=&quot;font-size: 50px;&quot;&gt;Genérer un compte &quot;Employé&quot;&lt;/font&gt;" style="ellipse;whiteSpace=wrap;html=1;rounded=1;shadow=0;glass=0;fillColor=none;fontColor=#FFFFFF;strokeColor=#FFFFFF;fontSize=50;" parent="1" vertex="1">
                    <mxGeometry x="3534" y="2028" width="528" height="204" as="geometry"/>
                </mxCell>
                <mxCell id="59" value="&lt;div style=&quot;&quot;&gt;&lt;span style=&quot;background-color: initial;&quot;&gt;Gestions des véhicules d'occasion&lt;/span&gt;&lt;/div&gt;" style="ellipse;whiteSpace=wrap;html=1;rounded=1;shadow=0;glass=0;fillColor=none;fontColor=#FFFFFF;strokeColor=#FFFFFF;fontSize=50;align=center;strokeWidth=3;" parent="1" vertex="1">
                    <mxGeometry x="2904" y="606.5" width="556" height="249.5" as="geometry"/>
                </mxCell>
                <mxCell id="60" value="&lt;font style=&quot;font-size: 50px;&quot;&gt;-Ajouter&lt;br&gt;-Modifier&lt;br&gt;-Supprimer&lt;br&gt;&lt;/font&gt;" style="ellipse;whiteSpace=wrap;html=1;rounded=1;shadow=0;glass=0;fillColor=none;fontColor=#FFFFFF;strokeColor=#FFFFFF;fontSize=50;strokeWidth=3;" parent="1" vertex="1">
                    <mxGeometry x="3534" y="360" width="579" height="207" as="geometry"/>
                </mxCell>
                <mxCell id="63" value="&lt;font style=&quot;font-size: 50px;&quot;&gt;Gestions des avis clients&lt;/font&gt;" style="ellipse;whiteSpace=wrap;html=1;rounded=1;shadow=0;glass=0;fillColor=none;fontColor=#FFFFFF;strokeColor=#FFFFFF;fontSize=50;strokeWidth=3;" parent="1" vertex="1">
                    <mxGeometry x="3360" y="984" width="540" height="260.5" as="geometry"/>
                </mxCell>
                <mxCell id="67" value="&lt;font style=&quot;font-size: 50px;&quot;&gt;Véhicules d'occasions&lt;/font&gt;" style="ellipse;whiteSpace=wrap;html=1;rounded=1;shadow=0;glass=0;fillColor=none;fontColor=#FFFFFF;strokeColor=#FFFFFF;fontSize=50;" parent="1" vertex="1">
                    <mxGeometry x="1231" y="1302" width="529" height="283" as="geometry"/>
                </mxCell>
                <mxCell id="68" value="&lt;span style=&quot;font-size: 50px;&quot;&gt;Filtre de recherche&lt;/span&gt;" style="ellipse;whiteSpace=wrap;html=1;rounded=1;shadow=0;glass=0;fillColor=none;fontColor=#FFFFFF;strokeColor=#FFFFFF;fontSize=50;" parent="1" vertex="1">
                    <mxGeometry x="690" y="921" width="456" height="224" as="geometry"/>
                </mxCell>
                <mxCell id="72" value="&lt;font style=&quot;font-size: 50px;&quot;&gt;Formulaire de contact&lt;/font&gt;" style="ellipse;whiteSpace=wrap;html=1;rounded=1;shadow=0;glass=0;fillColor=none;fontColor=#FFFFFF;strokeColor=#FFFFFF;fontSize=50;" parent="1" vertex="1">
                    <mxGeometry x="1604" y="2743" width="388" height="213" as="geometry"/>
                </mxCell>
                <mxCell id="74" value="&lt;font style=&quot;font-size: 50px;&quot;&gt;Envoyer avis client&lt;/font&gt;" style="ellipse;whiteSpace=wrap;html=1;rounded=1;shadow=0;glass=0;fillColor=none;fontColor=#FFFFFF;strokeColor=#FFFFFF;fontSize=50;" parent="1" vertex="1">
                    <mxGeometry x="1505" y="1973" width="473" height="213" as="geometry"/>
                </mxCell>
                <mxCell id="132" style="edgeStyle=none;rounded=0;html=1;strokeWidth=10;fontSize=50;endArrow=block;endFill=0;strokeColor=#FFFFFF;" parent="1" source="76" target="53" edge="1">
                    <mxGeometry relative="1" as="geometry"/>
                </mxCell>
                <mxCell id="76" value="&lt;font style=&quot;font-size: 50px;&quot;&gt;Connexion&lt;br&gt;Identifiant/Password&lt;/font&gt;" style="ellipse;whiteSpace=wrap;html=1;rounded=1;shadow=0;glass=0;gradientColor=#0050EF;fillColor=none;strokeColor=#FFFFFF;fontColor=#FFFFFF;" parent="1" vertex="1">
                    <mxGeometry x="2049" y="384" width="542" height="211" as="geometry"/>
                </mxCell>
                <mxCell id="78" value="&lt;font style=&quot;font-size: 50px;&quot;&gt;Formulaire de contact(champs pré-rempli)&lt;/font&gt;" style="ellipse;whiteSpace=wrap;html=1;rounded=1;shadow=0;glass=0;fillColor=none;fontColor=#FFFFFF;strokeColor=#FFFFFF;fontSize=50;" parent="1" vertex="1">
                    <mxGeometry x="1433" y="641" width="562" height="243" as="geometry"/>
                </mxCell>
                <mxCell id="82" value="&lt;font size=&quot;1&quot; style=&quot;&quot;&gt;&lt;b style=&quot;font-size: 50px;&quot;&gt;Employés&lt;/b&gt;&lt;/font&gt;" style="shape=umlActor;verticalLabelPosition=bottom;verticalAlign=top;html=1;outlineConnect=0;aspect=fixed;fillColor=none;strokeColor=#FFFFFF;fontColor=#ffffff;strokeWidth=10;" parent="1" vertex="1">
                    <mxGeometry x="4321" y="868" width="246.16" height="400" as="geometry"/>
                </mxCell>
                <mxCell id="108" value="&lt;div style=&quot;&quot;&gt;&lt;span style=&quot;background-color: initial;&quot;&gt;Gestions des horaires et jours d'ouvertures&lt;/span&gt;&lt;/div&gt;" style="ellipse;whiteSpace=wrap;html=1;rounded=1;shadow=0;glass=0;fillColor=none;fontColor=#FFFFFF;strokeColor=#FFFFFF;fontSize=50;align=center;direction=west;flipH=1;flipV=1;" parent="1" vertex="1">
                    <mxGeometry x="2485" y="2208" width="592" height="273.5" as="geometry"/>
                </mxCell>
                <mxCell id="109" value="&lt;font style=&quot;font-size: 50px;&quot;&gt;-Modifier&lt;br&gt;&lt;/font&gt;" style="ellipse;whiteSpace=wrap;html=1;rounded=1;shadow=0;glass=0;fillColor=none;fontColor=#FFFFFF;strokeColor=#FFFFFF;fontSize=50;direction=west;flipH=1;flipV=1;" parent="1" vertex="1">
                    <mxGeometry x="3052" y="2640" width="306" height="141" as="geometry"/>
                </mxCell>
                <mxCell id="123" value="" style="endArrow=none;startArrow=none;endFill=0;startFill=0;endSize=8;html=1;verticalAlign=bottom;labelBackgroundColor=none;strokeWidth=10;rounded=0;fontSize=50;exitX=1;exitY=0.5;exitDx=0;exitDy=0;strokeColor=#FFFFFF;" parent="1" source="59" target="82" edge="1">
                    <mxGeometry width="160" relative="1" as="geometry">
                        <mxPoint x="3060" y="1680" as="sourcePoint"/>
                        <mxPoint x="3220" y="1680" as="targetPoint"/>
                    </mxGeometry>
                </mxCell>
                <mxCell id="124" value="" style="endArrow=none;startArrow=none;endFill=0;startFill=0;endSize=8;html=1;verticalAlign=bottom;labelBackgroundColor=none;strokeWidth=10;rounded=0;fontSize=50;exitX=1;exitY=0.5;exitDx=0;exitDy=0;strokeColor=#FFFFFF;" parent="1" source="63" target="82" edge="1">
                    <mxGeometry width="160" relative="1" as="geometry">
                        <mxPoint x="3060" y="1680" as="sourcePoint"/>
                        <mxPoint x="3220" y="1680" as="targetPoint"/>
                    </mxGeometry>
                </mxCell>
                <mxCell id="125" value="" style="endArrow=none;startArrow=none;endFill=0;startFill=0;endSize=8;html=1;verticalAlign=bottom;labelBackgroundColor=none;strokeWidth=10;rounded=0;fontSize=50;exitX=1;exitY=0.5;exitDx=0;exitDy=0;strokeColor=#FFFFFF;" parent="1" source="54" target="52" edge="1">
                    <mxGeometry width="160" relative="1" as="geometry">
                        <mxPoint x="3060" y="1680" as="sourcePoint"/>
                        <mxPoint x="3220" y="1680" as="targetPoint"/>
                    </mxGeometry>
                </mxCell>
                <mxCell id="126" value="" style="endArrow=none;startArrow=none;endFill=0;startFill=0;endSize=8;html=1;verticalAlign=bottom;labelBackgroundColor=none;strokeWidth=10;rounded=0;fontSize=50;exitX=0;exitY=0.5;exitDx=0;exitDy=0;strokeColor=#FFFFFF;" parent="1" source="108" target="52" edge="1">
                    <mxGeometry width="160" relative="1" as="geometry">
                        <mxPoint x="3060" y="1680" as="sourcePoint"/>
                        <mxPoint x="3220" y="1680" as="targetPoint"/>
                    </mxGeometry>
                </mxCell>
                <mxCell id="127" value="-Ajouter&lt;br&gt;-Vérifier et Publier" style="ellipse;whiteSpace=wrap;html=1;rounded=0;fontSize=50;fillColor=none;gradientColor=none;strokeColor=#FFFFFF;fontColor=#FFFFFF;strokeWidth=3;" parent="1" vertex="1">
                    <mxGeometry x="3672" y="1512" width="426" height="264" as="geometry"/>
                </mxCell>
                <mxCell id="128" value="&amp;lt;&amp;lt;include&amp;gt;&amp;gt;" style="html=1;verticalAlign=bottom;labelBackgroundColor=none;endArrow=open;endFill=0;dashed=1;rounded=0;strokeWidth=10;fontSize=50;entryX=0.989;entryY=0.668;entryDx=0;entryDy=0;entryPerimeter=0;strokeColor=#FFFFFF;fontColor=#FFFFFF;" parent="1" source="54" target="53" edge="1">
                    <mxGeometry x="-0.1162" y="-66" width="160" relative="1" as="geometry">
                        <mxPoint x="2100" y="2208" as="sourcePoint"/>
                        <mxPoint x="2260" y="2208" as="targetPoint"/>
                        <mxPoint x="2" y="1" as="offset"/>
                    </mxGeometry>
                </mxCell>
                <mxCell id="129" value="&amp;lt;&amp;lt;include&amp;gt;&amp;gt;" style="html=1;verticalAlign=bottom;labelBackgroundColor=none;endArrow=open;endFill=0;dashed=1;rounded=0;strokeWidth=10;fontSize=50;entryX=1;entryY=1;entryDx=0;entryDy=0;exitX=0.5;exitY=1;exitDx=0;exitDy=0;strokeColor=#FFFFFF;fontColor=#FFFFFF;" parent="1" source="108" target="53" edge="1">
                    <mxGeometry x="-0.0801" y="-119" width="160" relative="1" as="geometry">
                        <mxPoint x="2100" y="2208" as="sourcePoint"/>
                        <mxPoint x="2260" y="2208" as="targetPoint"/>
                        <mxPoint x="1" y="1" as="offset"/>
                    </mxGeometry>
                </mxCell>
                <mxCell id="130" value="&amp;lt;&amp;lt;include&amp;gt;&amp;gt;" style="html=1;verticalAlign=bottom;labelBackgroundColor=none;endArrow=open;endFill=0;dashed=1;rounded=0;strokeWidth=10;fontSize=50;entryX=1;entryY=0;entryDx=0;entryDy=0;exitX=0;exitY=1;exitDx=0;exitDy=0;strokeColor=#FFFFFF;fontColor=#FFFFFF;" parent="1" source="63" target="53" edge="1">
                    <mxGeometry x="-0.0868" y="-86" width="160" relative="1" as="geometry">
                        <mxPoint x="2100" y="2208" as="sourcePoint"/>
                        <mxPoint x="2260" y="2208" as="targetPoint"/>
                        <mxPoint x="1" y="-2" as="offset"/>
                    </mxGeometry>
                </mxCell>
                <mxCell id="131" value="&amp;lt;&amp;lt;include&amp;gt;&amp;gt;" style="html=1;verticalAlign=bottom;labelBackgroundColor=none;endArrow=open;endFill=0;dashed=1;rounded=0;strokeWidth=10;fontSize=50;entryX=0.5;entryY=0;entryDx=0;entryDy=0;exitX=0.5;exitY=1;exitDx=0;exitDy=0;strokeColor=#FFFFFF;fontColor=#FFFFFF;" parent="1" source="59" target="53" edge="1">
                    <mxGeometry x="0.035" y="-162" width="160" relative="1" as="geometry">
                        <mxPoint x="2100" y="2208" as="sourcePoint"/>
                        <mxPoint x="2260" y="2208" as="targetPoint"/>
                        <mxPoint as="offset"/>
                    </mxGeometry>
                </mxCell>
                <mxCell id="133" value="&amp;lt;&amp;lt;extend&amp;gt;&amp;gt;" style="html=1;verticalAlign=bottom;labelBackgroundColor=none;endArrow=open;endFill=0;dashed=1;rounded=0;strokeWidth=10;fontSize=50;exitX=0.5;exitY=1;exitDx=0;exitDy=0;entryX=1;entryY=0;entryDx=0;entryDy=0;strokeColor=#FFFFFF;fontColor=#FFFFFF;" parent="1" source="60" target="59" edge="1">
                    <mxGeometry x="0.4488" y="-44" width="160" relative="1" as="geometry">
                        <mxPoint x="2100" y="2208" as="sourcePoint"/>
                        <mxPoint x="2260" y="2208" as="targetPoint"/>
                        <mxPoint x="-2" y="1" as="offset"/>
                    </mxGeometry>
                </mxCell>
                <mxCell id="134" value="&amp;lt;&amp;lt;extend&amp;gt;&amp;gt;" style="html=1;verticalAlign=bottom;labelBackgroundColor=none;endArrow=open;endFill=0;dashed=1;rounded=0;strokeWidth=10;fontSize=50;entryX=0.5;entryY=1;entryDx=0;entryDy=0;strokeColor=#FFFFFF;fontColor=#FFFFFF;" parent="1" source="127" target="63" edge="1">
                    <mxGeometry x="-0.3049" y="-155" width="160" relative="1" as="geometry">
                        <mxPoint x="2100" y="2208" as="sourcePoint"/>
                        <mxPoint x="2260" y="2208" as="targetPoint"/>
                        <mxPoint y="2" as="offset"/>
                    </mxGeometry>
                </mxCell>
                <mxCell id="135" value="&amp;lt;&amp;lt;extend&amp;gt;&amp;gt;" style="html=1;verticalAlign=bottom;labelBackgroundColor=none;endArrow=open;endFill=0;dashed=1;rounded=0;strokeWidth=10;fontSize=50;entryX=0;entryY=0;entryDx=0;entryDy=0;exitX=0.5;exitY=1;exitDx=0;exitDy=0;strokeColor=#FFFFFF;fontColor=#FFFFFF;" parent="1" source="109" target="108" edge="1">
                    <mxGeometry x="-0.0934" y="-67" width="160" relative="1" as="geometry">
                        <mxPoint x="2100" y="2208" as="sourcePoint"/>
                        <mxPoint x="2260" y="2208" as="targetPoint"/>
                        <mxPoint x="1" as="offset"/>
                    </mxGeometry>
                </mxCell>
                <mxCell id="138" value="" style="endArrow=none;startArrow=none;endFill=0;startFill=0;endSize=8;html=1;verticalAlign=bottom;labelBackgroundColor=none;strokeWidth=10;rounded=0;fontSize=50;entryX=0;entryY=0;entryDx=0;entryDy=0;strokeColor=#FFFFFF;" parent="1" target="72" edge="1">
                    <mxGeometry width="160" relative="1" as="geometry">
                        <mxPoint x="339" y="1772" as="sourcePoint"/>
                        <mxPoint x="2911" y="1794" as="targetPoint"/>
                    </mxGeometry>
                </mxCell>
                <mxCell id="139" value="" style="endArrow=none;startArrow=none;endFill=0;startFill=0;endSize=8;html=1;verticalAlign=bottom;labelBackgroundColor=none;strokeWidth=10;rounded=0;fontSize=50;entryX=0;entryY=0;entryDx=0;entryDy=0;strokeColor=#FFFFFF;" parent="1" target="74" edge="1">
                    <mxGeometry width="160" relative="1" as="geometry">
                        <mxPoint x="335" y="1716" as="sourcePoint"/>
                        <mxPoint x="2911" y="1794" as="targetPoint"/>
                    </mxGeometry>
                </mxCell>
                <mxCell id="140" value="" style="endArrow=none;startArrow=none;endFill=0;startFill=0;endSize=8;html=1;verticalAlign=bottom;labelBackgroundColor=none;strokeWidth=10;rounded=0;fontSize=50;entryX=0;entryY=0.5;entryDx=0;entryDy=0;strokeColor=#FFFFFF;" parent="1" target="67" edge="1">
                    <mxGeometry width="160" relative="1" as="geometry">
                        <mxPoint x="347" y="1676" as="sourcePoint"/>
                        <mxPoint x="2911" y="1794" as="targetPoint"/>
                    </mxGeometry>
                </mxCell>
                <mxCell id="141" value="&amp;lt;&amp;lt;extend&amp;gt;&amp;gt;" style="html=1;verticalAlign=bottom;labelBackgroundColor=none;endArrow=open;endFill=0;dashed=1;rounded=0;strokeWidth=10;fontSize=50;entryX=0;entryY=0;entryDx=0;entryDy=0;exitX=0.5;exitY=1;exitDx=0;exitDy=0;strokeColor=#FFFFFF;fontColor=#FFFFFF;" parent="1" source="68" target="67" edge="1">
                    <mxGeometry x="-0.3524" y="-135" width="160" relative="1" as="geometry">
                        <mxPoint x="2751" y="1794" as="sourcePoint"/>
                        <mxPoint x="2911" y="1794" as="targetPoint"/>
                        <mxPoint as="offset"/>
                    </mxGeometry>
                </mxCell>
                <mxCell id="142" value="&amp;lt;&amp;lt;extend&amp;gt;&amp;gt;" style="html=1;verticalAlign=bottom;labelBackgroundColor=none;endArrow=open;endFill=0;dashed=1;rounded=0;strokeWidth=10;fontSize=50;entryX=0.5;entryY=0;entryDx=0;entryDy=0;strokeColor=#FFFFFF;fontColor=#FFFFFF;" parent="1" source="78" target="67" edge="1">
                    <mxGeometry x="-0.464" y="184" width="160" relative="1" as="geometry">
                        <mxPoint x="2751" y="1794" as="sourcePoint"/>
                        <mxPoint x="2911" y="1794" as="targetPoint"/>
                        <mxPoint y="1" as="offset"/>
                    </mxGeometry>
                </mxCell>
                <mxCell id="143" value="-Prix&lt;br&gt;-Kilométres&lt;br&gt;-Années de mise en circulations&lt;br&gt;-Marque&lt;br&gt;-Modele&lt;br&gt;-Carburant" style="ellipse;whiteSpace=wrap;html=1;rounded=1;shadow=0;glass=0;fillColor=none;fontColor=#FFFFFF;strokeColor=#FFFFFF;fontSize=50;" parent="1" vertex="1">
                    <mxGeometry x="475" y="373" width="793" height="379" as="geometry"/>
                </mxCell>
                <mxCell id="144" value="&amp;lt;&amp;lt;extend&amp;gt;&amp;gt;" style="html=1;verticalAlign=bottom;labelBackgroundColor=none;endArrow=open;endFill=0;dashed=1;rounded=0;strokeWidth=10;fontSize=50;entryX=0.5;entryY=0;entryDx=0;entryDy=0;exitX=0.5;exitY=1;exitDx=0;exitDy=0;strokeColor=#FFFFFF;fontColor=#FFFFFF;" parent="1" source="143" target="68" edge="1">
                    <mxGeometry x="-0.0731" y="-169" width="160" relative="1" as="geometry">
                        <mxPoint x="1305" y="754" as="sourcePoint"/>
                        <mxPoint x="1465" y="754" as="targetPoint"/>
                        <mxPoint y="1" as="offset"/>
                    </mxGeometry>
                </mxCell>
                <mxCell id="167" value="&lt;b&gt;GARAGE VINCENT PARROT&lt;br style=&quot;font-size: 87px;&quot;&gt;&lt;/b&gt;Diagramme de cas d'utilisation" style="rounded=0;whiteSpace=wrap;html=1;strokeColor=#FFFFFF;strokeWidth=10;fontSize=87;fontColor=#000000;fillColor=#FFFFFF;gradientColor=none;" parent="1" vertex="1">
                    <mxGeometry x="450" y="63" width="3770" height="240" as="geometry"/>
                </mxCell>
                <mxCell id="170" style="edgeStyle=none;html=1;endArrow=none;endFill=0;strokeWidth=10;strokeColor=#FFFFFF;" parent="1" source="168" target="52" edge="1">
                    <mxGeometry relative="1" as="geometry"/>
                </mxCell>
                <mxCell id="168" value="&lt;div style=&quot;&quot;&gt;&lt;span style=&quot;background-color: initial;&quot;&gt;Gestions des services&lt;/span&gt;&lt;/div&gt;" style="ellipse;whiteSpace=wrap;html=1;rounded=1;shadow=0;glass=0;fillColor=none;fontColor=#FFFFFF;strokeColor=#FFFFFF;fontSize=50;align=center;direction=west;flipH=1;flipV=1;" parent="1" vertex="1">
                    <mxGeometry x="3475" y="2838" width="592" height="273.5" as="geometry"/>
                </mxCell>
                <mxCell id="169" value="&lt;font style=&quot;font-size: 50px;&quot;&gt;-Ajouter&lt;br&gt;-Modifier&lt;br&gt;-Supprimer&lt;br&gt;&lt;/font&gt;" style="ellipse;whiteSpace=wrap;html=1;rounded=1;shadow=0;glass=0;fillColor=none;fontColor=#FFFFFF;strokeColor=#FFFFFF;fontSize=50;direction=west;flipH=1;flipV=1;" parent="1" vertex="1">
                    <mxGeometry x="2703" y="2972" width="516" height="194" as="geometry"/>
                </mxCell>
                <mxCell id="171" value="&amp;lt;&amp;lt;extend&amp;gt;&amp;gt;" style="html=1;verticalAlign=bottom;labelBackgroundColor=none;endArrow=open;endFill=0;dashed=1;rounded=0;strokeWidth=10;fontSize=50;entryX=0;entryY=0.5;entryDx=0;entryDy=0;exitX=0.009;exitY=0.603;exitDx=0;exitDy=0;exitPerimeter=0;strokeColor=#FFFFFF;fontColor=#FFFFFF;" parent="1" source="168" target="169" edge="1">
                    <mxGeometry x="-0.0645" y="130" width="160" relative="1" as="geometry">
                        <mxPoint x="3387" y="2396" as="sourcePoint"/>
                        <mxPoint x="3064.4184676075556" y="2283.8540587717025" as="targetPoint"/>
                        <mxPoint x="-1" as="offset"/>
                        <Array as="points"/>
                    </mxGeometry>
                </mxCell>
            </root>
        </mxGraphModel>
    </diagram>
</mxfile>